<svg width="92" height="94" viewBox="0 0 92 94" fill="none" xmlns="http://www.w3.org/2000/svg">
<g clip-path="url(#clip0_25_39)">
<path d="M88.4785 59.4792L89.3051 55.6604L88.1869 55.4171L87.5183 58.5059L85.438 58.0546L86.1067 54.9657L83.3577 54.3695L83.9725 51.5352L92.0001 53.2737L90.5588 59.9268L88.4785 59.4755V59.4792Z" fill="white"/>
<path d="M88.3245 65.5862L80.7315 62.4547L81.8367 59.7745L89.4296 62.906L88.3245 65.5862Z" fill="white"/>
<path d="M82.3192 75.67L75.4952 71.099L77.2411 68.493L81.437 68.937L82.5235 69.1264L82.5365 69.106L81.1026 68.2052L78.5692 66.5075L79.9678 64.4198L86.7918 68.9908L85.0459 71.5967L80.8389 71.1454L79.7635 70.9634L79.7504 70.9838L81.1843 71.8846L83.7178 73.5823L82.3192 75.67Z" fill="white"/>
<path d="M76.5895 81.4037C75.6255 82.2562 74.6634 82.6314 73.6994 82.5311C72.7354 82.4308 71.8197 81.8903 70.9505 80.9078C70.0868 79.9326 69.6633 78.9575 69.68 77.9861C69.6949 77.0147 70.1852 76.1027 71.1474 75.2502L74.1675 72.5793L79.6096 78.7309L76.5895 81.4018V81.4037ZM72.8246 76.5262C72.4215 76.8828 72.2599 77.2431 72.3435 77.6072C72.4271 77.9712 72.702 78.417 73.1701 78.9445C73.6363 79.472 74.0468 79.8008 74.3978 79.9271C74.7488 80.0552 75.1259 79.9401 75.529 79.5816L76.0694 79.1024L73.3651 76.0451L72.8246 76.5225V76.5262Z" fill="white"/>
<path d="M62.4676 90.0387C61.6541 90.347 60.8963 90.4566 60.196 90.3675C59.4958 90.2783 58.8792 89.9978 58.3461 89.5261C57.813 89.0543 57.3858 88.4005 57.0682 87.5628C56.7506 86.7251 56.6354 85.9525 56.7209 85.2448C56.8082 84.5371 57.0831 83.9186 57.5474 83.3874C58.0118 82.8562 58.6507 82.4364 59.4642 82.1262C60.2703 81.8198 61.0263 81.7102 61.7284 81.7993C62.4323 81.8866 63.0527 82.1671 63.5895 82.637C64.1281 83.1069 64.5553 83.7607 64.8729 84.5984C65.1906 85.4361 65.3039 86.2088 65.2147 86.9183C65.1237 87.6278 64.8451 88.2482 64.377 88.7794C63.909 89.3125 63.2719 89.7304 62.4658 90.0368L62.4676 90.0387ZM61.695 88.003C61.9587 87.9027 62.1482 87.7541 62.2633 87.5535C62.3785 87.3548 62.4231 87.1003 62.3989 86.7901C62.3748 86.4799 62.2763 86.0992 62.1054 85.6497C61.9383 85.2076 61.76 84.8603 61.5705 84.6077C61.3811 84.3551 61.1786 84.1935 60.9594 84.1211C60.7403 84.0486 60.5007 84.0616 60.2369 84.1619C59.9732 84.2622 59.7837 84.4108 59.6685 84.6114C59.5534 84.8102 59.5107 85.0665 59.5404 85.3785C59.5701 85.6906 59.6685 86.0676 59.8376 86.5097C60.0085 86.9592 60.1849 87.3102 60.3688 87.5591C60.5527 87.808 60.7533 87.9696 60.9724 88.042C61.1916 88.1144 61.4312 88.1014 61.695 88.0011V88.003Z" fill="white"/>
<path d="M47.0646 93.0829L46.5631 88.4302C46.4312 87.2099 46.6615 86.2626 47.2521 85.5902C47.8428 84.9179 48.7975 84.5093 50.1181 84.3681C51.4387 84.2269 52.4584 84.4201 53.1791 84.9513C53.8997 85.4825 54.3269 86.3592 54.4588 87.5795L54.9603 92.2323L52.0646 92.5443L51.539 87.6687C51.4944 87.2563 51.37 86.9554 51.1657 86.7641C50.9613 86.5728 50.6902 86.4967 50.3521 86.5319C50.0048 86.5691 49.7522 86.7028 49.5943 86.9331C49.4364 87.1635 49.3789 87.4848 49.4234 87.8971L49.9491 92.7728L47.0664 93.0848L47.0646 93.0829Z" fill="white"/>
<path d="M35.6212 91.9239L35.9146 89.8158L38.4537 90.1687L39.2913 84.1414L42.1629 84.5408L41.3252 90.568L43.8772 90.9228L43.5838 93.0309L35.6212 91.9239Z" fill="white"/>
<path d="M18.0942 83.9725L22.2306 76.8755L24.4131 78.1478L22.9773 80.6107L21.5545 82.9788L21.5861 82.9974L25.7875 78.9502L27.7879 80.1147L26.3169 85.7538L26.3596 85.7779L27.7192 83.3726L29.155 80.9097L31.3485 82.1876L27.2121 89.2828L23.7073 87.2397L24.727 83.6141L25.1857 82.1096L25.1634 82.0966L24.0806 83.237L21.4282 85.9116L18.0961 83.9688L18.0942 83.9725Z" fill="white"/>
<path d="M12.0698 78.3483C11.4735 77.7131 11.0854 77.0537 10.9015 76.3739C10.7176 75.6922 10.7436 75.0162 10.9758 74.3419C11.2098 73.6696 11.6519 73.025 12.3057 72.4121C12.9595 71.7992 13.63 71.398 14.3172 71.2104C15.0044 71.0209 15.6824 71.0395 16.3492 71.268C17.0178 71.4946 17.6494 71.9255 18.2437 72.5626C18.8344 73.1922 19.2226 73.8497 19.4083 74.5332C19.594 75.2168 19.5717 75.8966 19.3414 76.5745C19.1111 77.2506 18.6691 77.8951 18.0153 78.508C17.3615 79.121 16.6891 79.5203 16 79.7061C15.3109 79.8918 14.6292 79.8695 13.9587 79.6392C13.2882 79.4089 12.6586 78.9798 12.0679 78.3502L12.0698 78.3483ZM13.6597 76.8587C13.8529 77.0648 14.0627 77.1837 14.2912 77.2134C14.5197 77.245 14.7723 77.1893 15.049 77.0481C15.3258 76.907 15.6415 76.6729 15.9926 76.3442C16.338 76.021 16.5906 75.7238 16.7522 75.4526C16.9138 75.1815 16.9863 74.9326 16.9696 74.7023C16.9528 74.4719 16.8488 74.2546 16.6557 74.0503C16.4625 73.8441 16.2526 73.7253 16.0241 73.6956C15.7957 73.664 15.5431 73.7234 15.2663 73.8683C14.9896 74.015 14.6775 74.2491 14.3321 74.5722C13.981 74.901 13.7247 75.1982 13.5631 75.4619C13.4015 75.7275 13.3291 75.9746 13.3458 76.203C13.3625 76.4333 13.4665 76.6507 13.6597 76.855V76.8587Z" fill="white"/>
<path d="M4.97979 68.2088C4.4653 67.2708 4.27956 66.435 4.42258 65.705C4.5656 64.9732 4.98351 64.4179 5.67446 64.039C6.46756 63.6043 7.19937 63.5226 7.86803 63.7938C8.53669 64.065 9.12919 64.6705 9.64369 65.6085L9.91301 65.7868L10.5705 66.9866L12.961 65.6753L14.3262 68.1624L7.12507 72.1112L4.98351 68.2051L4.97979 68.2088ZM8.36209 66.9216C8.21536 66.6523 8.05562 66.4777 7.88289 66.396C7.71015 66.3161 7.50027 66.3421 7.25323 66.4777C7.01363 66.6096 6.8799 66.7712 6.85018 66.9606C6.82232 67.152 6.88176 67.3804 7.03035 67.6497L7.56899 68.6323L8.90073 67.9023L8.36209 66.9198V66.9216ZM8.07048 65.1218L10.3625 60.9409L11.8763 63.7009L9.64369 67.1111L8.07048 65.1218Z" fill="white"/>
<path d="M9.99819 59.6667L2.07087 61.8138L0.287781 55.2313L2.34205 54.6741L3.36733 58.4576L4.35174 58.1901L3.5252 55.1384L5.42345 54.6239L6.24999 57.6756L7.18611 57.4211L6.12183 53.4928L8.1761 52.9355L9.99819 59.6611V59.6667Z" fill="white"/>
<path d="M3.52087 33.6059L2.69433 37.4247L3.81248 37.668L4.48114 34.5792L6.56141 35.0305L5.89275 38.1193L8.64168 38.7156L8.02874 41.5499L-0.000732422 39.8077L1.4406 33.1545L3.52087 33.6059Z" fill="white"/>
<path d="M3.67338 27.4969L11.2664 30.6284L10.1612 33.3086L2.56824 30.1771L3.67338 27.4969Z" fill="white"/>
<path d="M9.67778 17.4132L16.5018 21.9842L14.7559 24.5901L10.56 24.1462L9.47347 23.9567L9.46047 23.9772L10.8944 24.878L13.4278 26.5756L12.0292 28.6633L5.2052 24.0923L6.95114 21.4864L11.1581 21.9378L12.2335 22.1198L12.2465 22.0993L10.8126 21.1985L8.27917 19.5009L9.67778 17.4132Z" fill="white"/>
<path d="M15.4099 11.6812C16.3739 10.8286 17.336 10.4534 18.3 10.5537C19.264 10.654 20.1796 11.1945 21.0489 12.1771C21.9126 13.1522 22.3361 14.1273 22.3194 15.0987C22.3045 16.0702 21.8141 16.9821 20.852 17.8347L17.8319 20.5056L12.3898 14.3539L15.4099 11.683V11.6812ZM19.1748 16.5586C19.5778 16.202 19.7394 15.8417 19.6559 15.4777C19.5723 15.1136 19.2974 14.6678 18.8293 14.1403C18.3631 13.6128 17.9526 13.2841 17.6016 13.1578C17.2505 13.0296 16.8735 13.1448 16.4704 13.5032L15.9299 13.9825L18.6343 17.0397L19.1748 16.5624V16.5586Z" fill="white"/>
<path d="M29.53 3.0445C30.3435 2.73617 31.1014 2.62659 31.8016 2.71574C32.5018 2.8049 33.1185 3.08536 33.6515 3.55714C34.1846 4.02891 34.6118 4.68271 34.9294 5.52039C35.247 6.35807 35.3622 7.13075 35.2768 7.83841C35.1895 8.54607 34.9146 9.16458 34.4502 9.69579C33.9859 10.227 33.3469 10.6468 32.5334 10.957C31.7273 11.2634 30.9713 11.373 30.2674 11.2839C29.5634 11.1966 28.9431 10.9161 28.4063 10.4462C27.8676 9.97626 27.4404 9.32246 27.1228 8.48478C26.8052 7.6471 26.6919 6.87443 26.7811 6.1649C26.8721 5.45538 27.1507 4.83502 27.6188 4.30381C28.0868 3.77074 28.7239 3.35282 29.53 3.04636V3.0445ZM30.3027 5.08019C30.0389 5.18049 29.8495 5.32908 29.7343 5.52968C29.6192 5.72842 29.5746 5.98288 29.5987 6.29306C29.6229 6.60325 29.7213 6.98401 29.8922 7.4335C30.0594 7.87556 30.2377 8.22289 30.4271 8.47549C30.6166 8.7281 30.819 8.88969 31.0382 8.96213C31.2574 9.03456 31.497 9.02156 31.7607 8.92126C32.0245 8.82097 32.2139 8.67237 32.3291 8.47178C32.4442 8.27304 32.487 8.01672 32.4572 7.70468C32.4275 7.39264 32.3291 7.01559 32.1601 6.57353C31.9892 6.12404 31.8127 5.773 31.6288 5.52411C31.445 5.27522 31.2444 5.11362 31.0252 5.04119C30.806 4.96875 30.5664 4.98175 30.3027 5.08205V5.08019Z" fill="white"/>
<path d="M44.9344 0.000194177L45.4359 4.65294C45.5678 5.87325 45.3375 6.82051 44.7468 7.49289C44.1562 8.16526 43.2015 8.57388 41.8809 8.71504C40.5621 8.85806 39.5406 8.66304 38.8199 8.13183C38.0992 7.60061 37.6739 6.72393 37.542 5.50363L37.0405 0.850877L39.9362 0.538836L40.4618 5.41447C40.5064 5.82681 40.6309 6.12771 40.8352 6.31902C41.0395 6.51033 41.3107 6.58648 41.6487 6.55119C41.996 6.51404 42.2468 6.38031 42.4065 6.15C42.5644 5.91968 42.622 5.59835 42.5774 5.18601L42.0518 0.310377L44.9344 -0.00166321V0.000194177Z" fill="white"/>
<path d="M56.378 1.1591L56.0846 3.26723L53.5455 2.91432L52.7078 8.94154L49.8363 8.5422L50.674 2.51499L48.1219 2.16023L48.4154 0.0520935L56.378 1.1591Z" fill="white"/>
<path d="M73.9044 9.11069L69.768 16.2078L67.5855 14.9355L69.0213 12.4726L70.4441 10.1044L70.4125 10.0858L66.2111 14.1331L64.2107 12.9685L65.6817 7.32946L65.639 7.30532L64.2794 9.71063L62.8455 12.1735L60.6519 10.8956L64.7883 3.80043L68.2932 5.84355L67.2735 9.46917L66.8147 10.9737L66.837 10.9867L67.9199 9.84622L70.5722 7.17158L73.9062 9.11441L73.9044 9.11069Z" fill="white"/>
<path d="M79.9279 14.7348C80.5242 15.37 80.9123 16.0293 81.0962 16.7092C81.2801 17.3908 81.2541 18.0669 81.0219 18.7411C80.7879 19.4135 80.3458 20.058 79.692 20.671C79.0382 21.2839 78.3677 21.6851 77.6805 21.8727C76.9933 22.0621 76.3153 22.0436 75.6485 21.8151C74.9799 21.5885 74.3483 21.1576 73.754 20.5205C73.1633 19.8909 72.7751 19.2333 72.5894 18.5498C72.4037 17.8663 72.426 17.1865 72.6563 16.5086C72.8866 15.8325 73.3286 15.188 73.9824 14.575C74.6362 13.9621 75.3086 13.5627 75.9977 13.377C76.6868 13.1913 77.3685 13.2136 78.039 13.4439C78.7095 13.6742 79.3391 14.1032 79.9298 14.7329L79.9279 14.7348ZM78.338 16.2244C78.1448 16.0182 77.935 15.8993 77.7065 15.8696C77.478 15.838 77.2254 15.8938 76.9487 16.0349C76.6719 16.1761 76.3562 16.4101 76.0051 16.7389C75.6597 17.0621 75.4071 17.3592 75.2455 17.6304C75.0839 17.9016 75.0114 18.1505 75.0282 18.3808C75.0449 18.6111 75.1489 18.8284 75.3421 19.0327C75.5352 19.2389 75.7451 19.3578 75.9736 19.3875C76.202 19.4191 76.4546 19.3596 76.7314 19.2148C77.01 19.068 77.3202 18.834 77.6656 18.5108C78.0167 18.1821 78.273 17.8849 78.4346 17.6211C78.5962 17.3555 78.6686 17.1085 78.6519 16.88C78.6352 16.6497 78.5312 16.4324 78.338 16.2281V16.2244Z" fill="white"/>
<path d="M87.0202 24.8743C87.5347 25.8123 87.7204 26.6481 87.5774 27.378C87.4344 28.1099 87.0165 28.6652 86.3255 29.0441C85.5324 29.4787 84.8006 29.5605 84.132 29.2893C83.4633 29.0181 82.8708 28.4126 82.3563 27.4746L82.087 27.2963L81.4295 26.0964L79.039 27.4078L77.6738 24.9207L84.8749 20.9719L87.0165 24.878L87.0202 24.8743ZM83.9295 27.9594L81.6375 32.1404L80.1237 29.3803L82.3563 25.9701L83.9295 27.9594ZM83.6379 26.1596C83.7846 26.4289 83.9462 26.6035 84.1171 26.6852C84.2898 26.7651 84.4979 26.7391 84.7467 26.6035C84.9864 26.4716 85.1201 26.31 85.1498 26.1206C85.1777 25.9293 85.1182 25.7008 84.9696 25.4315L84.431 24.4489L83.0992 25.1789L83.6379 26.1615V26.1596Z" fill="white"/>
<path d="M81.9991 33.4164L89.9265 31.2692L91.7096 37.8518L89.6553 38.409L88.63 34.6255L87.6456 34.893L88.4721 37.9447L86.5739 38.4592L85.7473 35.4075L84.8112 35.6619L85.8755 39.5903L83.8212 40.1475L81.9991 33.4219V33.4164Z" fill="white"/>
</g>
<defs>
<clipPath id="clip0_25_39">
<rect width="92" height="93.0829" fill="white"/>
</clipPath>
</defs>
</svg>
