<svg width="86" height="87" viewBox="0 0 86 87" fill="none" xmlns="http://www.w3.org/2000/svg">
<g filter="url(#filter0_d_35_583)">
<path d="M58.5997 20.9131L30.4091 59.6178L31.5373 60.4186L59.7279 21.7139L58.5997 20.9131Z" fill="white"/>
<path d="M26.0487 26.0009L25.321 27.0222L64.0889 55.3308L64.8166 54.3095L26.0487 26.0009Z" fill="white"/>
<path d="M68.6287 36.3189L21.2904 43.522L21.5197 45.0053L68.858 37.8022L68.6287 36.3189Z" fill="white"/>
<path d="M41.9082 16.8756L40.7228 17.046L48.2314 64.4559L49.4168 64.2854L41.9082 16.8756Z" fill="white"/>
<path d="M50.3816 77.2267C45.6036 77.671 41.0037 75.5273 38.1237 71.5075C33.6173 73.7827 28.3274 73.2848 24.1673 70.1587C20.0013 67.0278 17.9244 61.9865 18.6624 56.8878C13.8367 55.2062 10.3519 51.0436 9.50134 45.8829C8.65078 40.7221 10.6281 35.7556 14.6863 32.7744C12.338 28.1187 12.6959 22.7272 15.6513 18.552C18.6119 14.3763 23.4972 12.3834 28.5106 13.2674C30.0346 8.38072 34.0232 4.92716 39.0562 4.18469C44.0795 3.44851 49.0053 5.59417 52.0292 9.81578C56.535 7.53532 61.8255 8.03852 65.9856 11.1646C70.1516 14.2955 72.2285 19.3368 71.4905 24.4355C76.3162 26.1171 79.801 30.2797 80.6516 35.4404C81.5021 40.6012 79.5248 45.5677 75.4666 48.5489C77.8131 53.1886 77.4616 58.5903 74.5016 62.7713C71.541 66.947 66.6557 68.9399 61.6423 68.0559C60.1183 72.9426 56.1297 76.3962 51.0967 77.1386C50.8587 77.1715 50.6208 77.2044 50.3868 77.2262L50.3816 77.2267ZM38.4948 69.7838L38.8569 70.2881C41.5525 74.395 46.1564 76.5275 50.8787 75.8247C55.597 75.133 59.3041 71.7917 60.5518 67.1083L60.7059 66.5237L61.2926 66.6467C66.0236 67.6807 70.6644 65.8934 73.4397 61.9824C76.2098 58.0719 76.4537 52.9708 74.0675 48.6737L73.7692 48.1312L74.254 47.7741C78.2082 45.1253 80.1687 40.4724 79.3707 35.6349C78.5727 30.7974 75.205 26.9252 70.5802 25.5316L69.9927 25.3549L70.1079 24.7524C71.0013 19.9566 69.1263 15.1655 65.2302 12.2355C61.3289 9.30592 56.3257 8.92662 52.1774 11.2545L51.6535 11.5453L51.2914 11.0411C48.5958 6.93416 43.9821 4.80788 39.2644 5.50489C34.5461 6.19656 30.839 9.53788 29.5913 14.2213L29.4326 14.8117L28.8401 14.6839C24.1091 13.6499 19.4683 15.4372 16.6982 19.3477C13.9281 23.2582 13.6842 28.3593 16.0704 32.6564L16.3687 33.1989L15.8839 33.556C11.9298 36.2048 9.96927 40.8577 10.7678 45.7005C11.5658 50.538 14.9335 54.4103 19.5531 55.8043L20.1296 55.9767L20.0242 56.5729C19.132 61.3793 21.0013 66.1655 24.9031 69.1004C28.8044 72.03 33.8024 72.4098 37.956 70.0814L38.4798 69.7906L38.4948 69.7838Z" fill="white"/>
</g>
<defs>
<filter id="filter0_d_35_583" x="0.797552" y="4.04187" width="80.0485" height="82.8154" filterUnits="userSpaceOnUse" color-interpolation-filters="sRGB">
<feFlood flood-opacity="0" result="BackgroundImageFix"/>
<feColorMatrix in="SourceAlpha" type="matrix" values="0 0 0 0 0 0 0 0 0 0 0 0 0 0 0 0 0 0 127 0" result="hardAlpha"/>
<feOffset dx="-4.25465" dy="5.31831"/>
<feGaussianBlur stdDeviation="2.12733"/>
<feComposite in2="hardAlpha" operator="out"/>
<feColorMatrix type="matrix" values="0 0 0 0 0 0 0 0 0 0 0 0 0 0 0 0 0 0 0.25 0"/>
<feBlend mode="normal" in2="BackgroundImageFix" result="effect1_dropShadow_35_583"/>
<feBlend mode="normal" in="SourceGraphic" in2="effect1_dropShadow_35_583" result="shape"/>
</filter>
</defs>
</svg>
