<svg width="252" height="255" viewBox="0 0 252 255" fill="none" xmlns="http://www.w3.org/2000/svg">
<g filter="url(#filter0_d_35_590)">
<path d="M122.463 86.7047L145.384 60.0297L155.987 64.4932L147.683 93.4152L173.447 78.4683L176.93 82.5903L158.937 102.274L189.143 107.36L189.203 112.727L161.223 123.658L186.917 145.983L185.14 148.898L153.121 138.043L167.987 173.759L161.413 179.08L136.88 158.129L130.306 190.771L121.813 191.59L110.808 161.56L83.1833 177.372L75.8152 170.882L89.414 151.851L61.2327 149.999L58.9346 143.934L80.0082 130.126L55.1318 116.295L56.0439 111.52L84.2487 110.055L73.3503 78.757L80.8131 71.9781L102.811 92.7169L111.162 57.1603L115.746 57.2894L122.463 86.7047Z" stroke="white" stroke-miterlimit="10"/>
<path d="M121.976 86.816L122.196 87.7824L122.842 87.0306L145.526 60.6319L155.383 64.7818L147.202 93.2772L146.86 94.4708L147.934 93.8477L173.336 79.1111L176.265 82.5773L158.567 101.937L157.948 102.614L158.853 102.767L188.648 107.783L188.699 112.387L161.041 123.192L160.271 123.493L160.895 124.035L186.27 146.084L184.921 148.296L153.281 137.569L152.234 137.215L152.659 138.235L167.382 173.606L161.422 178.43L137.205 157.749L136.558 157.196L136.39 158.03L129.889 190.309L122.149 191.056L111.277 161.388L111.073 160.832L110.559 161.126L83.2454 176.761L76.4845 170.805L89.8208 152.142L90.3429 151.411L89.4467 151.352L61.5864 149.521L59.5444 144.132L80.2822 130.544L80.974 130.091L80.2511 129.689L55.6908 116.033L56.4614 111.999L84.2747 110.554L84.94 110.52L84.7209 109.89L73.9312 78.9048L80.8067 72.6593L102.468 93.0807L103.099 93.6759L103.298 92.8312L111.555 57.6716L115.345 57.7783L121.976 86.816Z" stroke="white"/>
</g>
<g filter="url(#filter1_d_35_590)">
<path d="M144.332 181.737C160.979 194.718 184.998 191.745 197.979 175.098C210.96 158.45 207.987 134.432 191.34 121.451C174.692 108.47 150.674 111.442 137.693 128.09C124.712 144.737 127.684 168.756 144.332 181.737Z" fill="#FFFF00"/>
<path d="M185.458 161.885L178.609 162.934L178.028 163.023L177.873 163.59L176.048 170.277L169.88 167.097L169.357 166.828L168.898 167.196L163.497 171.537L160.391 165.341L160.127 164.814L159.538 164.842L152.606 165.181L153.73 158.337L153.825 157.756L153.333 157.433L147.537 153.639L152.455 148.759L152.871 148.346L152.664 147.797L150.214 141.315L157.071 140.259L157.652 140.17L157.806 139.603L159.631 132.918L165.786 136.098L166.309 136.368L166.768 136L172.177 131.662L175.289 137.854L175.553 138.379L176.141 138.351L183.067 138.019L181.942 144.851L181.847 145.431L182.339 145.754L188.137 149.56L183.212 154.436L182.795 154.849L183.003 155.399L185.458 161.885Z" stroke="black" stroke-width="1.81"/>
</g>
<defs>
<filter id="filter0_d_35_590" x="50.3182" y="56.649" width="143.643" height="143.985" filterUnits="userSpaceOnUse" color-interpolation-filters="sRGB">
<feFlood flood-opacity="0" result="BackgroundImageFix"/>
<feColorMatrix in="SourceAlpha" type="matrix" values="0 0 0 0 0 0 0 0 0 0 0 0 0 0 0 0 0 0 127 0" result="hardAlpha"/>
<feOffset dy="4.25465"/>
<feGaussianBlur stdDeviation="2.12733"/>
<feComposite in2="hardAlpha" operator="out"/>
<feColorMatrix type="matrix" values="0 0 0 0 0 0 0 0 0 0 0 0 0 0 0 0 0 0 0.25 0"/>
<feBlend mode="normal" in2="BackgroundImageFix" result="effect1_dropShadow_35_590"/>
<feBlend mode="normal" in="SourceGraphic" in2="effect1_dropShadow_35_590" result="shape"/>
</filter>
<filter id="filter1_d_35_590" x="122.607" y="113.369" width="83.4541" height="82.0533" filterUnits="userSpaceOnUse" color-interpolation-filters="sRGB">
<feFlood flood-opacity="0" result="BackgroundImageFix"/>
<feColorMatrix in="SourceAlpha" type="matrix" values="0 0 0 0 0 0 0 0 0 0 0 0 0 0 0 0 0 0 127 0" result="hardAlpha"/>
<feOffset dx="-4.20208" dy="2.80139"/>
<feGaussianBlur stdDeviation="1.40069"/>
<feComposite in2="hardAlpha" operator="out"/>
<feColorMatrix type="matrix" values="0 0 0 0 0 0 0 0 0 0 0 0 0 0 0 0 0 0 0.25 0"/>
<feBlend mode="normal" in2="BackgroundImageFix" result="effect1_dropShadow_35_590"/>
<feBlend mode="normal" in="SourceGraphic" in2="effect1_dropShadow_35_590" result="shape"/>
</filter>
</defs>
</svg>
