<svg width="150" height="132" viewBox="0 0 150 132" fill="none" xmlns="http://www.w3.org/2000/svg">
<path d="M60.1605 123.694C59.9073 123.735 59.6355 123.596 59.5752 123.293L54.1831 94.7576C54.1368 94.4738 53.8615 94.3136 53.5978 94.3566C53.5345 94.3669 53.4729 94.3878 53.4147 94.4296L28.667 109.78C28.6089 109.822 28.5367 109.844 28.4734 109.855C28.1042 109.915 27.7489 109.53 27.9333 109.133L40.3934 82.8667C40.5459 82.5396 40.3224 82.1658 39.9728 82.1473L10.9205 80.0759C10.4163 80.0394 10.2643 79.3733 10.7117 79.1276L36.271 65.1671C36.5897 64.9963 36.6283 64.569 36.3516 64.3335L14.0855 45.6325C13.7351 45.3442 13.9183 44.807 14.3192 44.7416C14.372 44.733 14.4142 44.7261 14.4703 44.7385L43.3722 48.4105C43.3722 48.4105 43.4705 48.416 43.5233 48.4074C43.8082 48.3609 44.0114 48.0795 43.9317 47.7903L36.9602 19.5991C36.8754 19.2783 37.1031 19.0145 37.3775 18.9697C37.5252 18.9456 37.6726 18.9863 37.8004 19.1058L58.9951 39.0071C59.1229 39.1266 59.2809 39.1656 59.4286 39.1415C59.5974 39.114 59.742 39.004 59.8218 38.8291L70.8119 11.9173C70.8899 11.7319 71.0362 11.6325 71.1944 11.6066C71.4476 11.5653 71.7195 11.7045 71.7798 12.0077L77.1718 40.5429C77.2181 40.8268 77.4934 40.987 77.7572 40.944C77.8205 40.9336 77.8821 40.9128 77.9402 40.8709L102.688 25.5207C102.746 25.4789 102.818 25.4563 102.882 25.446C103.251 25.3857 103.606 25.7703 103.422 26.1674L90.9615 52.4339C90.8091 52.761 91.0325 53.1347 91.3821 53.1533L120.436 55.2352C120.94 55.2717 121.092 55.9377 120.645 56.1834L95.0857 70.144C94.7669 70.3148 94.7283 70.742 95.005 70.9775L117.271 89.6786C117.622 89.9669 117.438 90.5041 117.037 90.5695C116.985 90.5781 116.942 90.585 116.886 90.5726L87.9845 86.9006C87.9845 86.9006 87.8861 86.895 87.8333 86.9036C87.5485 86.9501 87.3453 87.2315 87.425 87.5208L94.3964 115.712C94.4707 116.034 94.2535 116.297 93.9792 116.341C93.8315 116.365 93.684 116.325 93.5562 116.205L72.3615 96.3039C72.2337 96.1845 72.0757 96.1455 71.928 96.1696C71.7592 96.1971 71.6147 96.307 71.5349 96.482L60.5431 123.383C60.465 123.569 60.3188 123.668 60.1605 123.694ZM60.332 124.745C60.8807 124.656 61.3214 124.303 61.5291 123.784L72.2104 97.6347L92.8151 116.974C93.174 117.315 93.6637 117.461 94.149 117.382C94.5922 117.31 94.9745 117.064 95.2167 116.69C95.4607 116.326 95.5398 115.882 95.4255 115.447L88.6477 88.0445L116.731 91.6126C116.886 91.6305 117.037 91.6275 117.195 91.6016C117.796 91.5035 118.287 91.0565 118.461 90.4667C118.624 89.8681 118.436 89.251 117.96 88.8538L96.3207 70.6765L121.165 57.1133C121.781 56.7752 122.102 56.086 121.947 55.399C121.802 54.7102 121.224 54.2215 120.521 54.1635L92.2789 52.1434L104.393 26.6134C104.643 26.0869 104.584 25.4596 104.228 24.9997C103.869 24.5292 103.289 24.2893 102.719 24.3823C102.508 24.4167 102.314 24.4915 102.138 24.6066L78.0774 39.5208L72.8385 11.7918C72.6785 10.9435 71.8846 10.393 71.03 10.5324C70.4814 10.6219 70.0406 10.9745 69.833 11.4941L59.1517 37.6431L38.5575 18.3022C38.1986 17.9614 37.7089 17.8146 37.2236 17.8938C36.7804 17.9661 36.3981 18.212 36.1559 18.5861C35.9119 18.9497 35.8328 19.3944 35.9471 19.8292L42.7249 47.2316L14.6416 43.6635C14.487 43.6455 14.3359 43.6486 14.1776 43.6744C13.5762 43.7726 13.0859 44.2196 12.9113 44.8093C12.749 45.4079 12.9364 46.025 13.4128 46.4223L35.0519 64.5995L10.2094 78.1733C9.59296 78.5114 9.27213 79.2006 9.42756 79.8876C9.57243 80.5764 10.1504 81.0651 10.8531 81.1231L39.0955 83.1432L26.9809 108.673C26.731 109.2 26.79 109.827 27.1467 110.287C27.5051 110.757 28.0841 110.987 28.6538 110.894C28.8648 110.859 29.0584 110.785 29.2346 110.67L53.2952 95.7553L58.5341 123.484C58.6941 124.333 59.488 124.883 60.3426 124.744L60.332 124.745Z" fill="white"/>
<path d="M60.1605 123.694C59.9073 123.735 59.6355 123.596 59.5752 123.293L54.1831 94.7576C54.1368 94.4738 53.8615 94.3136 53.5978 94.3566C53.5345 94.3669 53.4729 94.3878 53.4147 94.4296L28.667 109.78C28.6089 109.822 28.5367 109.844 28.4734 109.855C28.1042 109.915 27.7489 109.53 27.9333 109.133L40.3934 82.8667C40.5459 82.5396 40.3224 82.1658 39.9728 82.1473L10.9205 80.0759C10.4163 80.0394 10.2643 79.3733 10.7117 79.1276L36.271 65.1671C36.5897 64.9963 36.6283 64.569 36.3516 64.3335L14.0855 45.6325C13.7351 45.3442 13.9183 44.807 14.3192 44.7416C14.372 44.733 14.4142 44.7261 14.4703 44.7385L43.3722 48.4105C43.3722 48.4105 43.4705 48.416 43.5233 48.4074C43.8082 48.3609 44.0114 48.0795 43.9317 47.7903L36.9602 19.5991C36.8754 19.2783 37.1031 19.0145 37.3775 18.9697C37.5252 18.9456 37.6726 18.9863 37.8004 19.1058L58.9951 39.0071C59.1229 39.1266 59.2809 39.1656 59.4286 39.1415C59.5974 39.114 59.742 39.004 59.8218 38.8291L70.8119 11.9173C70.8899 11.7319 71.0362 11.6325 71.1944 11.6066C71.4476 11.5653 71.7195 11.7045 71.7798 12.0077L77.1718 40.5429C77.2181 40.8268 77.4934 40.987 77.7572 40.944C77.8205 40.9336 77.8821 40.9128 77.9402 40.8709L102.688 25.5207C102.746 25.4789 102.818 25.4563 102.882 25.446C103.251 25.3857 103.606 25.7704 103.422 26.1674L90.9615 52.4339C90.8091 52.761 91.0325 53.1347 91.3821 53.1533L120.436 55.2352C120.94 55.2717 121.092 55.9377 120.645 56.1834L95.0857 70.144C94.7669 70.3148 94.7283 70.742 95.005 70.9775L117.271 89.6786C117.622 89.9669 117.438 90.5041 117.037 90.5695C116.985 90.5781 116.942 90.585 116.886 90.5726L87.9845 86.9006C87.9845 86.9006 87.8861 86.895 87.8333 86.9036C87.5485 86.9501 87.3453 87.2315 87.425 87.5208L94.3964 115.712C94.4707 116.034 94.2535 116.297 93.9792 116.341C93.8315 116.365 93.684 116.325 93.5562 116.205L72.3615 96.3039C72.2337 96.1845 72.0757 96.1455 71.928 96.1696C71.7592 96.1971 71.6147 96.307 71.5349 96.482L60.5431 123.383C60.465 123.569 60.3188 123.668 60.1605 123.694M60.332 124.745C60.8807 124.656 61.3214 124.303 61.5291 123.784L72.2104 97.6347L92.8151 116.974C93.174 117.315 93.6637 117.461 94.149 117.382C94.5922 117.31 94.9745 117.064 95.2167 116.69C95.4607 116.326 95.5398 115.882 95.4255 115.447L88.6477 88.0445L116.731 91.6126C116.886 91.6305 117.037 91.6275 117.195 91.6016C117.796 91.5035 118.287 91.0565 118.461 90.4667C118.624 89.8681 118.436 89.251 117.96 88.8538L96.3207 70.6765L121.165 57.1133C121.781 56.7752 122.102 56.086 121.947 55.399C121.802 54.7102 121.224 54.2215 120.521 54.1635L92.2789 52.1434L104.393 26.6134C104.643 26.0869 104.584 25.4596 104.228 24.9997C103.869 24.5292 103.289 24.2893 102.719 24.3823C102.508 24.4167 102.314 24.4915 102.138 24.6066L78.0774 39.5208L72.8385 11.7918C72.6785 10.9435 71.8846 10.393 71.03 10.5324C70.4814 10.6219 70.0406 10.9745 69.833 11.4941L59.1517 37.6431L38.5575 18.3022C38.1986 17.9614 37.7089 17.8146 37.2236 17.8938C36.7804 17.9661 36.3981 18.212 36.1559 18.5861C35.9119 18.9497 35.8328 19.3944 35.9471 19.8292L42.7249 47.2316L14.6416 43.6635C14.487 43.6455 14.3359 43.6486 14.1776 43.6744C13.5762 43.7725 13.0859 44.2196 12.9113 44.8093C12.749 45.4079 12.9364 46.025 13.4128 46.4223L35.0519 64.5995L10.2094 78.1733C9.59296 78.5114 9.27214 79.2006 9.42756 79.8876C9.57243 80.5764 10.1504 81.0651 10.8531 81.1231L39.0955 83.1432L26.9809 108.673C26.731 109.2 26.79 109.827 27.1467 110.287C27.5051 110.757 28.0841 110.987 28.6538 110.894C28.8648 110.859 29.0584 110.785 29.2346 110.67L53.2952 95.7553L58.5341 123.484C58.6941 124.333 59.488 124.883 60.3426 124.744L60.332 124.745Z" stroke="white"/>
<ellipse cx="35.3714" cy="36.1893" rx="35.3714" ry="36.1893" transform="matrix(0.97629 -0.216862 0.230804 0.972649 63.1227 16.3415)" fill="#FFFF00"/>
<path d="M94.6399 31.9406L95.1948 32.6632L94.6399 31.9406ZM125.962 35.2934C126.462 35.2475 126.909 35.6137 126.96 36.1113L127.796 44.22C127.848 44.7175 127.484 45.1581 126.984 45.2039C126.484 45.2498 126.037 44.8836 125.986 44.386L125.243 37.1783L118.003 37.8426C117.503 37.8884 117.056 37.5222 117.005 37.0246C116.953 36.527 117.317 36.0865 117.817 36.0406L125.962 35.2934ZM90.1497 59.5854L89.2419 59.6362L89.1208 57.8295L90.0286 57.7787L90.1497 59.5854ZM105.273 52.1823L105.247 51.2777L105.273 52.1823ZM90.0286 57.7787C98.9228 57.281 104.278 54.7847 107.207 51.6405C110.118 48.515 110.748 44.6237 109.935 41.031C109.115 37.4119 106.843 34.1662 104.059 32.4222C101.318 30.7048 98.1248 30.4508 95.1948 32.6632L94.085 31.2179C97.7108 28.4801 101.741 28.8412 105.017 30.894C108.251 32.9201 110.792 36.5996 111.71 40.6509C112.633 44.7285 111.924 49.2526 108.548 52.8775C105.189 56.4836 99.3098 59.0728 90.1497 59.5854L90.0286 57.7787ZM95.1948 32.6632C91.8223 35.2098 91.3924 39.8053 93.3783 43.9251C95.3498 48.0153 99.6158 51.3799 105.247 51.2777L105.299 53.087C98.851 53.2039 93.9764 49.3352 91.739 44.6935C89.5159 40.0814 89.809 34.4465 94.085 31.2179L95.1948 32.6632ZM105.247 51.2777C109.455 51.2014 113.578 48.4557 117.17 45.0298C120.743 41.6224 123.592 37.7453 125.349 35.616L126.761 36.7727C125.085 38.8028 122.112 42.8368 118.437 46.3421C114.781 49.8289 110.229 52.9975 105.299 53.087L105.247 51.2777Z" fill="black"/>
</svg>
